<?xml version="1.0" encoding="utf-8"?><svg xmlns="http://www.w3.org/2000/svg" xmlns:xlink="http://www.w3.org/1999/xlink"><symbol fill="none" viewBox="0 0 28 28" id="ico-basket" xmlns="http://www.w3.org/2000/svg"><path d="M1.938 2.882a.646.646 0 01.683-.43h2.85c.43 0 .588.13.67.538.178.861.349 1.723.53 2.612h18.695c.14-.006.279.017.41.067a.5.5 0 01.286.577l-.494 3.9c-.112.888-.215 1.775-.34 2.663-.19 1.322-1.344 2.244-2.722 2.24-4.523-.017-9.062 0-13.591 0h-.356c.078.388.132.758.229 1.116.346 1.292 1.33 2.033 2.68 2.033h11.755c.117-.003.234.007.349.03a.491.491 0 01.38.523.499.499 0 01-.43.479c-.093.01-.186.015-.28.012h-11.74c-2.006 0-3.427-1.201-3.817-3.174A4685.82 4685.82 0 005.223 3.724a2.153 2.153 0 00-.056-.215H2.638a.665.665 0 01-.7-.392v-.235zm23.004 3.795H6.879L8.346 14h14.147c1.006 0 1.617-.575 1.723-1.575.17-1.458.362-2.911.545-4.367.066-.455.122-.914.18-1.381zM8.236 22.93a2.621 2.621 0 111.624 2.417 2.617 2.617 0 01-1.624-2.417zm2.613-1.581a1.57 1.57 0 101.574 1.57 1.577 1.577 0 00-1.574-1.57zM21.334 20.3a2.621 2.621 0 11-2.42 1.623 2.616 2.616 0 012.42-1.623zm1.576 2.617a1.57 1.57 0 10-3.14.004 1.57 1.57 0 003.14-.004z" fill="#E2B013"/></symbol><symbol fill="none" viewBox="0 0 60 60" id="ico-fast" xmlns="http://www.w3.org/2000/svg"><path d="M30.074 46.994a17.078 17.078 0 01-14.11-26.686.577.577 0 11.951.655 15.867 15.867 0 1014.931-6.743v17.298a.577.577 0 01-.577.577H20.308a.586.586 0 010-1.172h10.38v-17.34a.575.575 0 01.189-.425.548.548 0 01.434-.152 17.077 17.077 0 0110.758 29.035 16.902 16.902 0 01-11.995 4.953z" fill="#000"/></symbol><symbol fill="none" viewBox="0 0 60 60" id="ico-fully" xmlns="http://www.w3.org/2000/svg"><path d="M44.621 41.658H15.38a.577.577 0 01-.577-.581V30.849a.577.577 0 01.577-.577h7.449a.577.577 0 010 1.154h-6.873v9.079h28.09V11.889h-28.09v8.308a.577.577 0 01-1.153 0v-8.894a.572.572 0 01.577-.577H44.62a.57.57 0 01.578.577v29.774a.577.577 0 01-.578.581z" fill="#000"/><path d="M30 49.274a.572.572 0 01-.577-.577V18.798a.577.577 0 011.154 0v29.899a.573.573 0 01-.577.577z" fill="#000"/></symbol><symbol fill="none" viewBox="0 0 60 60" id="ico-many" xmlns="http://www.w3.org/2000/svg"><path d="M18 42.868a12.868 12.868 0 110-25.736c6.923 0 20.77 11.926 21.342 12.434a.573.573 0 010 .868c-.573.49-14.419 12.434-21.342 12.434zm0-24.582a11.714 11.714 0 100 23.428c5.783 0 17.483-9.54 20.072-11.714C35.474 27.826 23.774 18.286 18 18.286z" fill="#000"/><path d="M42 42.868c-6.923 0-20.77-11.927-21.341-12.434a.577.577 0 11.756-.868c.139.12 14.091 12.148 20.585 12.148a11.714 11.714 0 100-23.428c-2.488 0-6.526 1.846-11.686 5.345-.124.079-.274.107-.418.079a.572.572 0 01-.358-.232.575.575 0 01.153-.803c5.427-3.692 9.577-5.538 12.332-5.538a12.866 12.866 0 110 25.735L42 42.868z" fill="#000"/></symbol><symbol fill="none" viewBox="0 0 28 28" id="ico-search" xmlns="http://www.w3.org/2000/svg"><path d="M20.518 18.829a9.139 9.139 0 10-1.683 1.682l3.197 3.23a.43.43 0 00.596 0l1.112-1.11a.43.43 0 000-.6l-3.222-3.202zm-7.177 2.197a7.735 7.735 0 01-7.538-9.453C6.367 8.96 9 6.326 11.618 5.757a7.737 7.737 0 018.866 10.498 7.726 7.726 0 01-7.143 4.77z" fill="#E2B013"/><path d="M20.556 18.827a9.171 9.171 0 10-1.723 1.723l3.199 3.23a.431.431 0 00.596 0l1.155-1.154a.431.431 0 000-.597l-3.227-3.202zM7.72 20.485a9.11 9.11 0 1112.777-1.673l-.015.02 3.23 3.193a.43.43 0 010 .599l-1.076 1.077a.43.43 0 01-.597 0l-3.194-3.23-.02.014a9.124 9.124 0 01-11.105 0z" fill="#E2B013"/></symbol><symbol fill="none" viewBox="0 0 60 60" id="ico-smooth" xmlns="http://www.w3.org/2000/svg"><path d="M47.243 40.97H12.757a.577.577 0 110-1.153h33.95l1.496-19.048-10.818 6.273a.577.577 0 11-.582-.997l11.792-6.836a.577.577 0 01.596 0 .568.568 0 01.267.531l-1.615 20.686a.577.577 0 01-.6.545z" fill="#000"/><path d="M47.243 40.97H12.757a.577.577 0 01-.577-.53l-1.615-20.686a.568.568 0 01.863-.53l22.5 13.024a.576.576 0 11-.577.983L11.797 20.769l1.495 19.048h33.951a.577.577 0 010 1.154z" fill="#000"/><path d="M36.923 27.12a.559.559 0 01-.406-.17L30 20.417l-6.53 6.531a.576.576 0 01-.983-.408c0-.153.059-.3.165-.409l6.923-6.923a.572.572 0 01.813 0l6.923 6.923a.577.577 0 010 .817.559.559 0 01-.388.171z" fill="#000"/></symbol></svg>